<svg width="21" height="20" viewBox="0 0 21 20" fill="none" xmlns="http://www.w3.org/2000/svg">
<path d="M15.0463 11C15.7963 11 16.4563 10.59 16.7963 9.97L20.3763 3.48C20.7463 2.82 20.2663 2 19.5063 2H4.70628L3.76628 0H0.496277V2H2.49628L6.09628 9.59L4.74628 12.03C4.01628 13.37 4.97628 15 6.49628 15H18.4963V13H6.49628L7.59628 11H15.0463ZM5.65628 4H17.8063L15.0463 9H8.02628L5.65628 4ZM6.49628 16C5.39628 16 4.50628 16.9 4.50628 18C4.50628 19.1 5.39628 20 6.49628 20C7.59628 20 8.49628 19.1 8.49628 18C8.49628 16.9 7.59628 16 6.49628 16ZM16.4963 16C15.3963 16 14.5063 16.9 14.5063 18C14.5063 19.1 15.3963 20 16.4963 20C17.5963 20 18.4963 19.1 18.4963 18C18.4963 16.9 17.5963 16 16.4963 16Z" fill="#222222"/>
</svg>
