<svg width="109" height="64" viewBox="0 0 109 64" fill="none" xmlns="http://www.w3.org/2000/svg">
<path d="M31.1475 3.94299L21.143 22.7268H25.2039L35.6132 3.35218C36.3201 3.28154 36.9562 3.24301 37.361 3.25585L38.3891 1.10454H36.8148L37.406 -0.00643921H33.2358L32.6511 1.09812L15.8098 1.07243L12.7834 6.9163C12.7834 6.9163 22.2032 4.58517 31.0511 3.94941C31.0511 3.94941 31.0833 3.94941 31.1347 3.93657L31.1475 3.94299ZM51.4778 23.125C54.7677 23.125 59.0535 19.7857 61.0518 15.65C63.0502 11.5143 62.0028 8.16213 58.7194 8.15571C55.4295 8.15571 51.1437 11.4951 49.1454 15.6307C47.147 19.7664 48.1944 23.1186 51.4778 23.125ZM50.7582 20.2095L56.0978 10.5639C56.0978 10.5639 56.6439 9.46576 57.8905 9.09972C59.1306 8.73368 60.5249 9.09972 59.831 10.596L54.7484 20.2416C54.7484 20.2416 53.8681 21.8149 52.7372 22.0333C51.677 22.2388 49.7751 21.9948 50.7646 20.2031L50.7582 20.2095ZM40.85 3.21732C40.85 3.21732 41.6532 3.28796 41.4348 4.05858C41.2163 4.82278 31.8222 22.3993 31.8222 22.3993H35.3691L40.5609 12.4391C41.7239 12.0281 45.2644 10.7822 45.5664 10.7822C45.9326 10.7822 45.6049 11.3666 45.6049 11.3666L40.5223 20.6847C40.5223 20.6847 39.5007 22.3287 39.7898 22.6947C40.079 23.0608 40.8886 22.7654 40.8886 22.7654L47.2113 20.3893V19.6957C47.2113 19.6957 44.7632 20.7553 44.4676 20.537C44.172 20.3187 44.5768 19.7343 44.5768 19.7343L49.6209 10.6345C49.6209 10.6345 50.7903 9.02908 50.6104 8.40616C50.4305 7.78324 49.261 8.33552 49.261 8.33552L41.2099 11.1997L43.96 5.92733C43.96 5.92733 45.168 3.9173 43.9985 2.49165C43.0797 1.36783 42.4243 1.02748 39.1023 1.17518L38.1899 3.22374H40.8565L40.85 3.21732ZM66.2629 10.9299C66.1922 11.3281 60.4864 22.547 60.4864 22.547H63.7056L69.5978 11.7648C70.5423 11.418 72.7977 10.6153 72.7398 10.9299C72.6692 11.3281 66.9633 22.547 66.9633 22.547H70.1825L76.216 11.5079C77.2955 11.1354 79.7115 10.3134 79.8529 10.352C80.0392 10.4034 79.93 10.6731 79.93 10.6731L74.3012 21.115C74.3012 21.115 73.6587 22.3159 73.9543 22.6369C74.2498 22.958 74.8346 22.714 74.8346 22.714L81.6584 20.0233L81.4721 19.4389L79.0754 20.37C78.2786 20.6076 78.5678 19.8884 78.5678 19.8884L83.9524 10.0309C83.9524 10.0309 84.8326 8.83 84.5371 8.24562C84.2415 7.66123 83.0464 8.08507 83.0464 8.08507L76.8907 10.2557L77.5654 9.02266C77.5654 9.02266 77.7839 8.39974 77.5268 8.29057C77.2698 8.1814 77.0128 7.99516 75.8819 8.50891C74.9117 8.9456 71.2298 10.3134 70.1696 10.7052L71.0885 9.02266C71.0885 9.02266 71.307 8.39974 71.0499 8.29057C70.7929 8.1814 70.5359 7.99516 69.405 8.50891C68.2741 9.02266 63.41 10.8079 63.41 10.8079L63.5899 11.463C63.5899 11.463 66.3336 10.5125 66.2565 10.9171L66.2629 10.9299ZM39.6485 33.2651C39.6485 33.2651 40.683 31.4798 40.5223 31.1459C40.3167 30.722 38.7682 31.3257 38.7682 31.3257L32.0664 33.766L32.272 34.4531C32.272 34.4531 35.3369 33.3036 35.5233 33.355C35.7096 33.4064 35.6004 33.6632 35.6004 33.6632L29.9716 43.8097C29.9716 43.8097 29.3291 44.9721 29.6247 45.2867C29.9202 45.595 30.505 45.3638 30.505 45.3638L37.9843 42.4997L37.7979 41.9281L34.7458 43.0841C33.949 43.3152 34.2382 42.6153 34.2382 42.6153L39.6485 33.2651ZM44.5511 27.0487C44.5511 25.88 42.9383 24.9295 40.9464 24.9295C38.9545 24.9295 37.3417 25.88 37.3417 27.0487C37.3417 28.2175 38.9545 29.1679 40.9464 29.1679C42.9383 29.1679 44.5511 28.2175 44.5511 27.0487ZM17.6025 36.7971C18.6242 36.5466 19.6009 36.2769 20.5261 35.9879C21.5671 36.3026 21.3165 37.1696 21.3165 37.1696L20.7318 43.1611C20.7318 43.1611 20.4683 44.6959 21.2651 45.2803C22.0618 45.8647 22.5887 45.4922 22.5887 45.4922L29.1685 42.6281L28.905 41.8896C28.905 41.8896 26.5726 42.8978 25.6152 43.2703C24.6577 43.6428 24.6577 42.6345 24.6577 42.6345L25.0818 38.2869C25.0818 38.2869 25.4545 36.431 25.0818 35.4228C24.934 35.0118 24.5228 34.8063 24.0987 34.7036C28.9564 32.6678 31.7965 30.1505 32.2463 27.9478C32.8824 24.8204 28.6416 24.0754 25.0304 23.8635C21.4257 23.6516 14.8974 25.5589 14.8974 25.5589L14.7946 26.4066C14.7946 26.4066 16.9407 25.8093 19.4981 25.4176L8.9024 45.2225H12.9312L17.5961 36.7907L17.6025 36.7971ZM24.0666 25.1093C26.3155 25.2249 28.0761 25.8928 28.0568 27.7359C28.0054 32.5201 20.5004 34.9604 18.2772 35.5834L24.0666 25.1158V25.1093ZM59.2463 24.8717C59.2463 24.8717 59.5097 24.236 59.1435 23.9149C58.7708 23.5938 50.8674 26.8818 50.8674 26.8818L50.9766 27.5175L54.0545 26.5607C54.0545 26.5607 54.4785 26.5093 54.4271 26.824C54.3757 27.1451 53.8424 27.8836 53.8424 27.8836L51.3108 32.4174C49.1582 27.8322 43.5359 32.9376 41.1071 36.7907C38.6654 40.663 38.2413 44.8501 38.826 45.2739C39.4107 45.6977 40.0982 45.1712 40.0982 45.1712L46.2218 41.5428L44.8146 44.0602C44.8146 44.0602 43.8058 45.9675 45.5021 45.3317L53.1934 42.6795L53.142 41.9346L49.6915 43.1547C49.6915 43.1547 48.8948 43.418 49.3189 42.6217L59.2334 24.8653L59.2463 24.8717ZM46.8707 40.3869C46.074 40.8428 44.0949 41.9153 43.3367 41.8318C42.3857 41.7291 42.7006 39.6034 44.9816 35.7375C47.2627 31.8651 49.2225 31.5504 50.0192 31.9229C50.3662 32.0835 50.5911 32.7513 50.7389 33.4513L46.8707 40.3869ZM67.1496 25.7194C67.1496 25.7194 67.7858 24.7626 67.8372 24.236C67.8886 23.703 67.0918 23.9213 67.0918 23.9213L59.2398 26.8368L59.3491 27.5818C59.3491 27.5818 61.9514 26.7341 62.5297 26.5222C63.1144 26.3102 62.851 26.946 62.851 26.946L53.6239 43.9639C53.6239 43.9639 53.0392 44.651 53.4119 45.0748C53.7846 45.4987 54.4721 45.2354 54.4721 45.2354L61.7908 42.2685L61.6301 41.6327C61.6301 41.6327 59.2398 42.5896 58.6615 42.7437C58.0768 42.9042 58.2889 42.3199 58.2889 42.3199L67.1496 25.7258V25.7194ZM75.7406 34.8898C78.7091 31.3899 76.4281 30.1184 73.0354 31.0174C69.6427 31.9165 66.1922 34.1962 63.9626 38.8649C62.1377 42.6859 62.2663 45.1198 64.014 45.2803C65.7617 45.4409 71.866 43.5336 74.5133 41.3052L74.2498 40.6695C74.2498 40.6695 70.6965 43.585 65.9738 43.6363L67.7665 39.4365C69.148 39.0704 73.286 37.7668 75.7341 34.8834L75.7406 34.8898ZM69.2187 36.0586C69.2187 36.0586 71.8724 31.2358 73.7808 31.6596C75.6313 32.0706 72.3479 36.9641 68.3319 38.1328L69.2187 36.0586ZM83.6439 22.3801L89.5747 19.0792L88.1996 21.5838C88.1996 21.5838 87.9362 22.1168 88.251 22.4828C88.5659 22.8553 89.5747 22.3801 89.5747 22.3801L96.6299 19.8884L96.4692 19.1435L93.3914 20.2031C93.3914 20.2031 92.5947 20.415 92.9673 19.7279C93.34 19.0407 99.2258 8.16855 99.2258 8.16855L95.5118 8.21993L95.0621 9.0355C93.8412 6.83281 90.8212 7.75756 87.4478 10.8208C84.0038 13.9482 82.1982 20.415 82.301 21.7443C82.4102 23.0672 83.6246 22.3801 83.6246 22.3801H83.6439ZM87.2486 15.8619C88.4181 11.7776 92.4469 8.49607 93.6677 8.81074C94.1753 8.9456 94.4259 9.45934 94.548 10.0116L90.3779 17.6215C87.0173 19.5288 86.092 19.9012 87.2486 15.8619ZM98.0692 18.8288C97.4331 23.6516 94.8886 26.5671 90.4293 27.4726C85.9764 28.3716 83.3226 24.4479 83.3226 24.4479L82.8472 24.8204C85.3403 29.3285 90.6413 29.8551 94.94 28.3203C99.2386 26.7854 102.047 22.6498 102.047 17.7692C102.047 12.8886 102.895 11.1419 104.225 9.70979C105.548 8.27773 108.678 9.02266 108.678 9.02266L108.941 8.27773C100.138 6.42182 98.7053 14.006 98.0692 18.8288ZM93.8284 30.2275C93.4557 30.1248 90.7505 31.0239 85.7643 33.0403L85.925 33.5733C85.925 33.5733 88.7393 32.5651 89.1056 32.777C89.4783 32.9889 89.157 33.2522 88.8936 33.7339C88.8936 33.7339 87.1458 36.8934 84.9804 40.8557L80.7782 42.641C80.142 42.7501 80.4055 42.1657 80.4055 42.1657L85.6037 32.1477C85.6037 32.1477 86.2398 31.0881 86.1884 30.6642C86.137 30.2404 85.5523 30.3496 85.5523 30.3496L77.5397 33.4256L77.8031 34.1128L80.7203 33.0018C81.6777 32.6293 81.2536 33.3742 81.2536 33.3742L75.4193 44.4005C74.5197 45.9354 76.4795 45.2996 76.4795 45.2996L84.2479 42.2043C82.1982 45.961 79.93 50.1673 78.4457 53.0379C75.1558 59.4019 72.5599 64.0128 72.5599 64.0128H78.6063C78.6063 64.0128 80.4633 58.657 83.2198 52.2994C85.9764 45.9354 92.8645 32.7385 93.3529 31.8908C93.7769 31.1459 94.201 30.356 93.8284 30.2468V30.2275ZM78.7541 47.8812H3.01663L0.742004 52.2159H76.6144L78.7541 47.8812ZM86.5804 52.2159H100.337L102.612 47.8812H88.7265L86.5804 52.2159ZM92.5818 44.3941H93.0509C93.0509 44.3941 93.0958 44.3877 93.1151 44.3684C93.1344 44.3556 93.1473 44.3235 93.1473 44.2785V43.1868C93.1473 43.1868 93.1537 43.1547 93.173 43.1547H93.1858C93.1858 43.1547 93.2244 43.174 93.2436 43.2125L94.0597 44.3042C94.1047 44.362 94.1561 44.3941 94.2203 44.3941H94.6765C94.7472 44.3941 94.7793 44.3684 94.7793 44.3235C94.7793 44.2849 94.7601 44.2336 94.7215 44.1822L93.9183 43.174C93.9183 43.174 93.8926 43.129 93.8926 43.1097C93.8926 43.0905 93.9055 43.0776 93.9376 43.0648C94.1175 43.0198 94.2589 42.9364 94.3617 42.8143C94.4645 42.6923 94.5223 42.4997 94.5223 42.2428C94.5223 41.9667 94.4452 41.7676 94.2846 41.6391C94.1239 41.5107 93.8862 41.4529 93.5713 41.4529H92.5947C92.524 41.4529 92.4854 41.4914 92.4854 41.5685V44.3042C92.4854 44.3042 92.4983 44.362 92.5176 44.3748C92.5368 44.3877 92.5625 44.3941 92.5818 44.3941ZM93.1473 41.9667C93.1473 41.9153 93.173 41.896 93.2179 41.896H93.3464C93.5199 41.896 93.642 41.9281 93.7127 42.0052C93.7834 42.0758 93.8219 42.1722 93.8219 42.2878C93.8219 42.4419 93.7769 42.5511 93.6934 42.6217C93.6099 42.6859 93.4814 42.7244 93.3207 42.7244H93.2308C93.1794 42.7244 93.1537 42.6988 93.1537 42.6474V41.9795L93.1473 41.9667ZM91.7079 41.1832C91.4959 41.408 91.3288 41.6713 91.2132 41.9795C91.0975 42.2878 91.0397 42.6153 91.0397 42.9749C91.0397 43.3345 91.0975 43.662 91.2132 43.9639C91.3288 44.2657 91.4959 44.5226 91.7079 44.7345C91.92 44.9528 92.177 45.1198 92.4726 45.2418C92.7681 45.3638 93.1023 45.4216 93.4685 45.4216C93.8348 45.4216 94.1625 45.3574 94.4645 45.2418C94.7601 45.1198 95.0171 44.9464 95.2355 44.7281C95.454 44.5097 95.6211 44.2464 95.7367 43.9446C95.8524 43.6428 95.9166 43.3088 95.9166 42.9492C95.9166 42.5896 95.8588 42.2364 95.7367 41.9346C95.6146 41.6327 95.454 41.3694 95.2355 41.1575C95.0235 40.9456 94.7665 40.7786 94.4645 40.6566C94.1625 40.541 93.8348 40.4768 93.4685 40.4768C93.1023 40.4768 92.7746 40.541 92.4726 40.663C92.177 40.7915 91.92 40.9649 91.7079 41.1896V41.1832ZM93.4685 40.9584C93.7448 40.9584 93.9954 41.0098 94.2267 41.1061C94.4581 41.2025 94.6508 41.3437 94.8179 41.5171C94.9849 41.6969 95.1135 41.9024 95.2034 42.1401C95.2934 42.3777 95.3384 42.6345 95.3384 42.9171C95.3384 43.1997 95.2934 43.4694 95.2034 43.7198C95.1135 43.9639 94.9849 44.1822 94.8179 44.3556C94.6508 44.5354 94.4516 44.6767 94.2267 44.7794C93.9954 44.8822 93.7448 44.9336 93.4685 44.9336C93.1922 44.9336 92.9416 44.8822 92.7103 44.7794C92.479 44.6767 92.2862 44.5354 92.1256 44.362C91.965 44.1886 91.8364 43.9703 91.7465 43.7262C91.6565 43.4822 91.6116 43.2189 91.6116 42.9428C91.6116 42.6666 91.6565 42.3969 91.7465 42.1529C91.8364 41.9089 91.965 41.6969 92.1256 41.5236C92.2927 41.3437 92.4854 41.2089 92.7103 41.1061C92.9352 41.0034 93.1922 40.952 93.4685 40.952V40.9584Z" fill="#04A64B"/>
</svg>
