<svg width="197" height="24" viewBox="0 0 197 24" fill="none" xmlns="http://www.w3.org/2000/svg">
<g clip-path="url(#clip0_52_8012)">
<path fill-rule="evenodd" clip-rule="evenodd" d="M19.4075 4.00026L12.6629 19.9851H8.28488L4.96933 7.23173C4.96933 6.64043 4.49682 6.04779 4.02431 5.81154C2.72292 5.22157 1.30139 4.74773 0 4.51014L0.118794 4.00026H7.10094C8.04596 4.00026 8.87485 4.74773 8.99364 5.69274L10.7689 14.924L15.0294 4.00026H19.4075ZM30.6489 8.53312C30.6489 7.94182 31.2388 7.34919 32.4228 7.23173C33.8416 7.11427 35.2631 7.34919 36.4471 7.94182L37.1558 4.51014C35.9732 4.0363 34.553 3.80005 33.2516 3.80005C29.2273 3.80005 26.2695 5.93033 26.2695 9.12442C26.2695 11.3735 28.281 12.6749 29.9388 13.5038C31.5939 14.33 32.0677 14.8052 32.0677 15.5153C32.0677 16.5791 30.7663 17.0529 29.5837 17.0529C28.1622 17.0529 26.6245 16.6979 25.3231 16.1052L24.613 19.6557C26.0319 20.2483 27.6897 20.4846 29.2273 20.4846C33.6067 20.2483 36.4471 18.1181 36.4471 14.8052C36.4471 10.5446 30.6489 10.3084 30.6489 8.53312ZM47.2146 19.9851H51L47.6871 4.00026H44.138C43.3091 4.00026 42.7165 4.51014 42.3627 5.22157L36.2095 19.9851H40.5875L41.4164 17.6442H46.7408L47.2146 19.9851ZM42.599 14.33L44.7306 8.29687L46.0307 14.33H42.599ZM25.3231 4.00026L21.8915 19.9851H17.7497L21.1814 4.00026H25.3231Z" fill="#1A2070"/>
</g>
<g clip-path="url(#clip1_52_8012)">
<path fill-rule="evenodd" clip-rule="evenodd" d="M78.672 19.861H87.325V4.13904H78.672V19.861Z" fill="#FF5F00"/>
<path fill-rule="evenodd" clip-rule="evenodd" d="M79.2229 12.0012C79.2196 8.93227 80.613 6.03338 83.0009 4.13894C78.7053 0.726714 72.4888 1.48005 69.1152 5.82116C65.7393 10.1645 66.4844 16.45 70.7789 19.8612C74.3646 22.7112 79.4141 22.7112 83.0009 19.8612C80.6141 17.9678 79.2207 15.07 79.2229 12.0012Z" fill="#EB001B"/>
<path fill-rule="evenodd" clip-rule="evenodd" d="M99 12.0011C99 17.5244 94.5736 22 89.1121 22C86.8945 22 84.7417 21.2466 82.9999 19.8611C87.2945 16.45 88.0384 10.1644 84.6648 5.82107C84.178 5.19552 83.6197 4.63107 82.9999 4.13885C87.2934 0.726629 93.5099 1.47774 96.8857 5.81996C98.2549 7.58107 99 9.75663 99 11.9989V12.0011Z" fill="#F79E1B"/>
</g>
<g clip-path="url(#clip2_52_8012)">
<path fill-rule="evenodd" clip-rule="evenodd" d="M122.17 6.68555H127.784C130.799 6.68555 131.933 8.21163 131.758 10.4537C131.468 14.1551 129.23 16.2029 126.262 16.2029H124.764C124.357 16.2029 124.083 16.4725 123.972 17.2029L123.336 21.4493C123.294 21.7247 123.149 21.8841 122.932 21.9058H119.404C119.072 21.9058 118.955 21.6522 119.042 21.1029L121.193 7.48989C121.277 6.94497 121.575 6.68555 122.17 6.68555Z" fill="#009EE3"/>
<path fill-rule="evenodd" clip-rule="evenodd" d="M149.788 10.0218C149.498 13.0652 147.868 14.7493 145.295 14.7565H143.047C142.724 14.7565 142.568 15.0203 142.483 15.5609L142.049 18.3247C141.983 18.742 141.769 18.9478 141.453 18.9478H139.362C139.028 18.9478 138.912 18.7348 138.986 18.258L140.712 7.18118C140.798 6.63625 141.002 6.43335 141.375 6.43335H146.381C148.279 6.43335 150.027 7.46089 149.788 10.0218ZM144.682 12.3638C145.747 12.3232 146.454 11.5855 146.526 10.2551C146.569 9.43335 146.014 8.84494 145.131 8.84929L143.528 8.85654L142.979 12.3638H144.682ZM155.473 18.1C155.665 17.9261 155.859 17.8362 155.831 18.0507L155.763 18.5638C155.728 18.8319 155.834 18.9739 156.083 18.9739H157.941C158.254 18.9739 158.407 18.8478 158.483 18.3638L159.628 11.1783C159.686 10.8174 159.598 10.6406 159.324 10.6406H157.281C157.097 10.6406 157.007 10.7435 156.959 11.0247L156.883 11.4667C156.844 11.6971 156.739 11.7377 156.64 11.5058C156.294 10.6855 155.41 10.3174 154.176 10.3464C151.311 10.4058 149.379 12.5812 149.172 15.3696C149.012 17.5261 150.557 19.2203 152.595 19.2203C154.073 19.2203 154.734 18.7855 155.479 18.1044L155.473 18.1ZM152.002 14.8044C152.181 13.5986 153.334 12.6145 154.568 12.6145C155.801 12.6145 156.66 13.5986 156.482 14.8044C156.304 16.0102 155.152 16.9942 153.917 16.9942C152.683 16.9942 151.824 16.0102 152.002 14.8044ZM161.381 10.6174C160.992 10.6174 160.834 10.9073 160.957 11.2638L163.297 18.1131L161.002 21.3725C160.81 21.6449 160.959 21.8928 161.23 21.8928H163.347C163.599 21.9219 163.845 21.8013 163.976 21.5841L171.17 11.2652C171.392 10.9478 171.288 10.6145 170.924 10.6145H168.92C168.576 10.6145 168.439 10.7507 168.241 11.0362L165.241 15.3841L163.901 11.0261C163.823 10.7623 163.627 10.6174 163.266 10.6174H161.381Z" fill="#113984"/>
<path fill-rule="evenodd" clip-rule="evenodd" d="M182.057 10.0217C181.768 13.0652 180.137 14.7493 177.565 14.7565H175.318C174.995 14.7565 174.839 15.0203 174.755 15.5609L174.32 18.3246C174.255 18.742 174.04 18.9478 173.724 18.9478H171.633C171.299 18.9478 171.183 18.7348 171.257 18.258L172.986 7.17825C173.072 6.63332 173.276 6.43042 173.649 6.43042H178.655C180.549 6.43332 182.297 7.46085 182.057 10.0217ZM176.952 12.3638C178.017 12.3232 178.724 11.5855 178.795 10.2551C178.839 9.43332 178.283 8.84491 177.401 8.84924L175.798 8.85651L175.249 12.3638H176.952ZM187.743 18.1C187.934 17.9261 188.128 17.8362 188.101 18.0507L188.033 18.5638C187.998 18.8319 188.104 18.9739 188.353 18.9739H190.211C190.524 18.9739 190.676 18.8478 190.753 18.3638L191.898 11.1782C191.956 10.8174 191.868 10.6406 191.594 10.6406H189.553C189.369 10.6406 189.279 10.7435 189.231 11.0246L189.156 11.4667C189.117 11.6971 189.011 11.7377 188.912 11.5058C188.566 10.6855 187.682 10.3174 186.449 10.3464C183.583 10.4058 181.652 12.5811 181.444 15.3696C181.285 17.5261 182.83 19.2203 184.868 19.2203C186.346 19.2203 187.007 18.7855 187.752 18.1043L187.743 18.1ZM184.273 14.8043C184.452 13.5985 185.605 12.6145 186.839 12.6145C188.072 12.6145 188.931 13.5985 188.753 14.8043C188.575 16.0101 187.421 16.9942 186.188 16.9942C184.955 16.9942 184.095 16.0101 184.273 14.8043ZM192.612 18.9855C192.537 18.9889 192.464 18.9584 192.413 18.9023C192.362 18.8462 192.339 18.7705 192.35 18.6956L194.234 6.75941C194.271 6.59167 194.419 6.47157 194.591 6.46955H196.736C196.811 6.46617 196.884 6.49667 196.935 6.55274C196.986 6.6088 197.009 6.68458 196.998 6.75941L195.114 18.6956C195.078 18.8645 194.93 18.9861 194.757 18.9884L192.612 18.9855Z" fill="#009EE3"/>
<path fill-rule="evenodd" clip-rule="evenodd" d="M118.658 2H124.278C125.861 2 127.739 2.05072 128.994 3.15942C129.833 3.9 130.274 5.07826 130.172 6.34783C129.828 10.6391 127.261 13.0435 123.817 13.0435H121.046C120.574 13.0435 120.262 13.3565 120.129 14.2029L119.355 19.1304C119.304 19.4493 119.167 19.6377 118.92 19.6609H115.452C115.068 19.6609 114.932 19.371 115.032 18.7304L117.525 2.93623C117.625 2.30145 117.974 2 118.658 2Z" fill="#113984"/>
<path fill-rule="evenodd" clip-rule="evenodd" d="M120.21 13.7029L121.191 7.48988C121.277 6.94495 121.575 6.68408 122.17 6.68408H127.784C128.713 6.68408 129.465 6.82901 130.054 7.09713C129.49 10.9174 127.019 13.0392 123.784 13.0392H121.017C120.646 13.0406 120.374 13.2261 120.21 13.7029Z" fill="#172C70"/>
</g>
<defs>
<clipPath id="clip0_52_8012">
<rect width="51" height="24" fill="white"/>
</clipPath>
<clipPath id="clip1_52_8012">
<rect width="32" height="24" fill="white" transform="translate(67)"/>
</clipPath>
<clipPath id="clip2_52_8012">
<rect width="82" height="24" fill="white" transform="translate(115)"/>
</clipPath>
</defs>
</svg>
